<?xml version="1.0" encoding="UTF-8"?>
<svg  id="Layer_1" xmlns="http://www.w3.org/2000/svg" viewBox="0 0 781.93 368.79"><defs><style>.cls-1{fill:#4d6c41;}</style></defs><path class="cls-1" d="m166.97,199.32c-12.45.12-25.94,1.46-36.1,8.74-5.34,3.83-9.21,9.2-14.25,13.37s-12.3,7.1-18.12,4.56c-4-1.75-6.59-5.78-10.87-6.87-2.89-.74-6.01,0-9.02.51-8.78,1.45-18.1.68-25.48-3.53s-12.43-12.24-11.46-20.54c.51-4.35,2.57-8.59,2.39-12.92-.21-5.15-3.49-9.5-5.84-14.05-2.35-4.55-3.67-10.42-.31-14.67,2.31-2.92,6.22-4.25,9.17-6.61,4.95-3.95,6.72-10.32,10.66-15.17,4.02-4.95,10.05-8.04,15.88-10.96,7-3.52,14.01-7.03,21.01-10.55,2.21-1.11,4.51-2.25,6.97-2.44,3.56-.28,6.78,1.45,10.05,2.63,9.82,3.56,21.02,2.27,31.71.93-6.75-6.98-15.4-12.31-24.98-15.39-7.52-2.42-16.33-3.97-20.49-10.28-4.77-7.23-1.02-17.1-2.96-25.51-.6-2.6-1.75-5.08-1.86-7.76-.27-6.49,5.78-12.28,12.41-14.53s13.74-1.85,20.66-1.78c6.92.07,14.25-.33,20.26-3.87,4.71-2.78,8.08-7.17,12.23-10.67,4.15-3.5,9.99-6.19,14.96-4.36,4.92,1.81,7.09,7.3,11.68,9.71,4.32,2.27,9.91,1.39,14.6,2.96,7.15,2.4,10.58,9.73,13.3,16.39,4.94,12.09,9.96,24.5,10.04,37.67.04,6.59-1.16,13.18-2.36,19.74-1.69,9.25-3.38,18.5-5.07,27.75-.4,2.18-1.12,4.75-3.32,5.58-2.23.84-4.66-.81-5.44-2.87s-.41-4.37-.24-6.6c.98-12.48-4.57-24.58-13.14-33.68s-19.95-15.5-31.82-20.53c-2.6-1.1-5.36-2.16-8.26-1.89s-5.92,2.32-6.16,5.06c-.24,2.83,2.36,4.92,4.63,6.67,15.06,11.6,20.02,24.78,30.79,45.46,1.16,2.23,12.16,19.52,10.65,21.7-2.23,3.25-23.78-7.51-27.79-7.5-16.11.06-30.11-3.07-46.16-.81-16.05,2.25-32.68,9.48-40.98,22.87,9.04.6,18.32-.59,27.04-3.48,9.2-3.05,18.64-8.04,27.91-6.15,6.02,1.23,10.95,5.26,17.01,6.38,4.3.79,9,.07,13.02,1.64,6.56,2.57,25.28,5.48,26.76,12.07.81,3.61.22,9.01-6.83,13.29-3.41,2.07-12.53,9.64-16.46,10.34"/><path class="cls-1" d="m225.37,204.36c-3.8,6.22-7.6,12.43-11.4,18.65-5.8,9.48-10.02,19.94-10.31,31.05-.41,15.6,8.57,28.62,18.79,40.4,2.49,2.87,5.06,5.79,8.4,7.58,3.33,1.78,7.22,2.32,10.57,4.08,4.25,2.24,7.26,6.23,11.01,9.23,10.21,8.17,26.78,7.43,35.5-2.32,1.23-1.38,2.32-2.91,3.71-4.12,1.98-1.72,4.48-2.71,6.91-3.71,9.4-3.88,18.52-8.45,27.26-13.66,3.46-2.06,6.92-4.29,9.4-7.46,4.18-5.36,4.92-12.77,3.55-19.43-1.37-6.66-4.61-12.75-7.82-18.75-5.56-10.38-11.39-21.1-20.75-28.24-5.75-4.39-12.53-7.18-19.23-9.92-7.03-2.88-14.39-5.81-21.96-5.17-4.93.42-10.19,2.3-14.6.06-2.74-1.4-6.09-4.22-8.26-2.05,3.01,3.44,1.42,10.25,5.65,11.97,1.46.59,3.1.26,4.68.27,6.24.04,11,5.35,14.83,10.28,1.54,1.99,3.15,4.23,3,6.74-.13,2.26-1.67,4.18-2.38,6.33-1.26,3.83.2,8,1.96,11.64,1.76,3.63,3.88,7.29,3.99,11.32.11,4.03-2.73,8.51-6.77,8.45-5.96-.09-7.35-8.12-9.69-13.6-2.73-6.39-9.3-10.96-16.24-11.3-4.65-.23-10.25.94-13.2-2.66-1.53-1.87-1.74-4.46-1.77-6.88-.07-5.76.49-11.53,1.68-17.17.52-2.46,1.16-5.02.52-7.45s-3.09-4.6-5.51-3.93"/><path class="cls-1" d="m210.31,202.5c-4.61,10.25-9.28,20.66-10.97,31.35-1.73,10.94-.25,21.64,1.72,32,1.14,6.01,2.46,12.11,1.6,18.46-.79,5.87-3.39,11.59-6.06,17.17-4.66,9.75-3.91,21.16-14.04,25.04-4.36,1.67-12.79,7.02-16.99,9.18-6.32,3.26-13.91,4.76-20.67,6.04-4.92.94-9.18-1.78-12.75-4.56-4.85-3.77-9.42-7.88-13.67-12.27-3.46-3.58-6.76-7.43-8.64-12.12-3.6-9-16.71-29.17-14.64-39.41,2.36-11.7,14.92-15.06,20.41-26.15,8.11-16.38,28.53-29.71,46.03-34.2,4.65-1.19,9.34-1.71,14.01-2.74,8.06-1.78,15.99-5.09,23.19-9.69-2.51,10.56-13.07,17.96-21.43,25.8-11.43,10.72-19.84,24.04-27.66,37.34-2.42,4.12-4.86,8.42-5.42,12.91-.55,4.49,1.3,9.24,5.47,10.46,5.37-1.44,8.97-7.14,10.38-12.43,1.42-5.29,1.41-10.72,3.32-15.92,1.4-3.8,3.75-7.31,6.14-10.73,10.54-15.09,22.21-29.52,34.86-43.08,1.53-1.64,3.11-3.3,5.05-4.4"/><path class="cls-1" d="m278.08,133.69c-26.67,40.76-30.23,50.47-42.81,50.47-1.09,1.92-1.92,4.1-2.6,6.02l-2.05.96c1.37-7.66,6.7-21.34,32.01-60.46,8.07-12.45,26.67-38.98,31.73-44.86-7.93-.14-19.15.27-29.54,2.19-13.27,2.46-24.07,8.21-28.59,14.09,1.23,4.24,12.58,7.8,16,12.04-1.23,5.2-10.67,13.81-16.14,13.81-3.83,0-6.29-5.47-6.29-11.49,0-16.14,15.32-29.41,37.34-34.61,8.34-2.05,23.39-3.83,33.37-3.97,3.28-4.24,6.16-7.39,7.25-7.39,1.78,0,2.87.55,5.06,2.33,2.33,1.78,3.42,3.56,3.97,4.79,5.61.14,11.9.96,17.1,2.05,6.16,2.46,14.91,7.25,17.1,9.71l-.68.68c-7.11-2.87-17.1-4.24-26.12-4.24-2.33,0-6.98-.14-12.72.14-10.4,13.13-19.97,28.04-33.37,47.74Z"/><path class="cls-1" d="m327.32,144.63c5.2-7.93,10.12-13.95,14.5-18.6-.14-1.78-3.69-3.28-7.11-3.56-3.56-.41-5.33-.41-8.62-.82-5.06,7.66-12.04,17.51-16.82,24.07-5.75,8.07-12.17,16.82-17.64,22.71-.82,7.93-7.11,12.04-11.63,13.54l-2.05-.27c3.56-4.1,6.84-7.93,11.63-13.54,4.92-5.61,12.31-15.32,18.33-23.66,5.2-7.11,13.13-18.19,16.14-23.25-1.37-.55-5.33-2.19-5.33-7.52,0-6.16,5.33-11.76,14.09-11.76,3.83,0,8.48,1.5,11.49,2.87l-.55,1.09c-3.01-.82-5.33.41-6.29,1.23-3.01,2.46-5.61,5.47-9.16,10.67-.55.82-1.09,1.64-.82,2.05.27.41,1.09.41,1.92.55,2.87.27,6.29.27,9.85.82,6.16.82,12.17,8.62,12.17,13.13,0,3.28-2.74,6.16-10.94,18.6-8.48,12.86-13.13,20.79-13.13,26.95.68.55,1.78.96,3.01.96,7.11,0,19.01-13.68,24.48-20.65,6.57-8.62,12.99-18.47,16.82-24.89l1.09,1.5c-3.69,6.15-9.99,15.87-16.55,24.48-3.83,4.92-17.37,21.75-26.67,21.75-7.8,0-14.36-8.62-14.23-13.13.14-5.33,3.97-13.27,12.04-25.3Z"/><path class="cls-1" d="m377.51,183.07c-10.8,0-19.29-11.08-19.29-18.33.14-6.7,1.64-14.5,6.57-22.84,6.7-11.49,20.93-26.67,41.85-26.67,9.71,0,19.15,11.35,19.01,18.47,0,6.29-1.23,13.4-5.61,21.34-8.89,16-24.76,28.04-42.54,28.04Zm-7.39-8.21c0,4.92,3.28,6.57,7.39,6.57.82,0,1.64-.14,2.6-.27,6.98-3.28,17.64-18.33,24.89-31.73,5.88-10.94,9.3-21.75,9.16-26.26-.14-3.97-2.87-6.29-7.52-6.29-.96,0-2.05.14-2.6.27-4.65,2.33-12.86,11.08-23.66,29.54-7.39,12.99-10.26,22.84-10.26,28.18Z"/><path class="cls-1" d="m461.49,121.24c1.78,2.74,3.15,5.61,4.92,9.85.55,1.09.82,1.91,1.23,1.91s.96-.27,1.78-1.37c7.25-8.48,14.91-15.87,23.25-15.87,6.02,0,13.4,8.21,13.4,13.81,0,6.98-1.78,15.59-8.07,25.99-9.85,16.55-25.3,27.49-44.32,27.49-5.75-.14-9.99-2.05-12.58-5.74-6.16,10.12-12.45,21.34-16.69,29.95-6.57,13.13-10.53,23.53-9.71,26.54-5.33-1.78-9.3-9.16-8.75-14.91.96-9.85,9.58-26.54,22.43-48.01,12.45-20.65,21.06-34.61,24.35-41.31,1.91-3.83,3.42-7.8,3.42-9.85-.55-1.23-1.5-1.78-3.15-1.78-6.16,0-13.54,6.98-19.97,14.91-4.65,5.74-10.26,14.09-15.05,23.8l-1.37-1.5c4.38-9.3,9.71-17.37,14.23-22.98,6.57-8.21,14.5-16.28,23.25-16.28,3.56,0,5.33,1.78,7.39,5.33Zm-18.33,52.39c1.09,5.61,5.33,7.8,10.4,7.8,1.37,0,2.74-.14,3.83-.55,6.29-3.01,17.23-17.23,25.44-30.91,9.85-16.55,12.86-26.54,12.17-30.64-.41-1.09-2.46-1.5-3.42-1.5-6.84,0-16.41,8.75-26.54,22.3-4.92,6.7-13.4,19.56-21.88,33.51Z"/><path class="cls-1" d="m515.51,152.02c6.43-8.75,13.13-19.56,18.6-27.77,3.28-5.06,6.16-8.75,8.48-8.75,2.19,0,3.83.55,6.29,2.33,2.87,2.05,3.83,3.42,5.06,4.79-3.69,3.97-10.4,13.95-17.1,25.17-7.93,12.99-13.68,25.71-13.54,31.46.68,1.23,2.05,1.64,3.28,1.64,6.84,0,18.47-13.54,23.8-20.65,6.57-8.62,12.99-18.47,16.82-24.89l1.09,1.5c-3.69,6.15-9.98,15.87-16.55,24.48-3.69,4.92-16.82,21.75-26.12,21.75-3.69,0-6.57-2.6-8.89-6.84-1.78-3.01-3.15-6.7-4.51-10.94-.41-1.09-.68-2.19-1.23-2.33-.55,0-.82.14-1.78,1.23-2.74,3.15-12.31,14.09-16.55,18.88l-.68-1.78c3.83-4.24,14.36-16.82,23.53-29.27Zm48.97-65.11c-2.46,3.15,2.74,11.08,1.78,15.32-2.87,2.6-7.25,4.24-11.63,4.24-4.79,0-7.66-2.6-7.66-6.02-.27-8.07,7.66-12.17,17.51-13.54Z"/><path class="cls-1" d="m552.99,164.33c0-6.98,3.15-15.73,8.07-23.39,9.85-15.05,24.07-25.71,42.54-25.71,8.62,1.37,12.31,8.75,12.31,12.72-.14,8.34-6.02,14.64-11.35,14.64-4.24,0-7.25-2.6-7.8-7.8,4.38-3.97,11.9-10.4,11.9-13.68,0-1.78-2.19-3.83-7.11-4.1-6.02,3.01-16.41,14.5-25.71,30.23-7.8,13.4-10.67,23.39-10.81,29,.82,2.19,3.56,4.65,8.34,4.65,5.88.14,12.45-2.33,19.42-7.52,5.75-4.24,12.31-11.22,17.37-17.64,5.88-7.52,10.81-14.36,14.5-20.38l1.09,1.5c-3.83,6.29-8.62,12.99-14.36,20.38-3.97,5.06-10.67,12.58-17.78,17.92-6.98,5.2-13.95,7.93-21.06,7.93-9.85-.14-19.56-11.35-19.56-18.74Z"/><path class="cls-1" d="m653.93,175.68c-1.78-3.15-3.15-6.7-3.97-8.75-.55-1.09-.82-1.5-1.37-1.5s-.96.41-1.78,1.37c-2.6,2.87-5.47,6.02-8.48,8.62-5.47,4.65-10.26,7.52-16.41,7.39-4.79-.55-10.81-6.98-12.45-13.95,0-6.43,2.46-15.05,9.03-25.85,7.25-12.17,17.92-21.2,29.27-25.17,6.02-2.05,11.9-2.6,15.46-2.19,4.92,1.09,8.07,5.88,7.39,12.31,2.46-3.83,7.11-9.98,9.03-9.98,1.78,0,3.42.68,5.88,2.6,3.15,2.19,4.24,3.56,5.47,5.2-3.69,3.97-9.3,12.04-14.36,20.38-4.51,7.39-15.59,25.3-15.59,33.37.82.96,2.33,1.5,3.69,1.5,7.25,0,17.51-14.09,23.25-21.06l.82,1.78c-5.88,7.52-16.28,21.34-24.62,21.34-4.65,0-7.52-2.33-10.26-7.39Zm-29.27,4.92c3.97,0,8.89-3.01,14.09-7.93,4.1-3.83,8.75-9.3,13.68-16.28,5.33-7.66,10.4-15.73,15.18-23.39,3.83-9.3-1.09-16.41-7.52-15.18-7.11,3.83-18.6,18.19-25.85,29.96-9.3,15.05-13.95,25.3-13.68,30.36.68,1.78,2.6,2.46,4.1,2.46Z"/><path class="cls-1" d="m715.47,147.64c-7.93,13.13-13.54,25.85-13.4,31.32.55,1.37,2.05,1.92,3.56,1.92,6.16-.14,14.91-9.57,24.07-20.93l.82,1.78c-9.03,11.49-17.78,21.34-25.58,21.34-4.38,0-6.57-2.19-9.16-6.84-1.78-3.28-3.56-8.34-5.06-12.58-.41-1.23-.68-2.05-1.23-2.05-.41,0-.82.55-2.05,1.92-.96,1.09-1.92,2.19-2.33,2.74l-.68-1.92c2.19-2.6,5.06-6.29,8.21-10.53,6.57-8.89,16.14-23.12,22.3-32.69,9.03-13.68,15.46-23.39,21.34-32.01,6.98-10.4,9.85-13.95,12.17-13.95,1.5,0,2.87.55,4.51,1.64,2.05,1.37,3.42,2.6,4.1,3.56,1.37-1.64,5.06-5.47,5.88-6.15l2.6-.96c-12.58,16.69-19.83,27.22-26.67,37.2-8.75,12.99-18.05,28.31-23.39,37.2Z"/><path class="cls-1" d="m506.75,196.83v37.74h-3.29v-17.7h-24.06v17.7h-3.29v-37.74h3.29v17.12h24.06v-17.12h3.29Z"/><path class="cls-1" d="m538.55,208.02v26.55h-3.23v-5.09c-.78,1.77-1.95,3.12-3.52,4.05s-3.45,1.4-5.64,1.4c-2.37,0-4.44-.56-6.23-1.67-1.78-1.11-3.16-2.7-4.13-4.77-.97-2.07-1.46-4.48-1.46-7.23s.49-5.19,1.48-7.29c.99-2.1,2.38-3.73,4.16-4.88,1.78-1.15,3.84-1.72,6.17-1.72,2.16,0,4.02.46,5.59,1.38,1.57.92,2.76,2.26,3.58,4.03v-4.77h3.23Zm-5.51,21.2c1.52-1.91,2.28-4.59,2.28-8.06s-.76-6.2-2.28-8.11c-1.52-1.91-3.68-2.86-6.47-2.86s-4.96.98-6.52,2.94c-1.56,1.96-2.33,4.67-2.33,8.14s.78,6.09,2.33,7.98c1.55,1.89,3.75,2.83,6.57,2.83s4.89-.95,6.41-2.86Z"/><path class="cls-1" d="m551.16,197.04v4.13h-4.29v-4.13h4.29Zm-3.82,10.97h3.18v26.55h-3.18v-26.55Z"/><path class="cls-1" d="m573.21,207.59l-.16,2.92c-.67-.14-1.48-.21-2.44-.21-2.69,0-4.69.86-6.02,2.57s-1.99,3.75-1.99,6.12v15.58h-3.18v-19.19c0-2.76-.14-5.21-.42-7.37h3.07l.42,4.93c.67-1.8,1.76-3.18,3.26-4.13,1.5-.95,3.21-1.43,5.11-1.43.88,0,1.66.07,2.33.21Z"/><path class="cls-1" d="m595.76,233.8c-2.28-.79-4.3-2.04-6.07-3.74l1.38-2.6c1.87,1.66,3.77,2.84,5.7,3.55,1.93.71,4.21,1.06,6.86,1.06,3.18,0,5.65-.65,7.42-1.96,1.77-1.31,2.65-3.14,2.65-5.51,0-1.38-.43-2.5-1.3-3.37-.87-.87-1.96-1.55-3.29-2.04-1.33-.49-3.08-.99-5.27-1.48-2.9-.64-5.26-1.3-7.08-1.99-1.82-.69-3.35-1.72-4.58-3.1-1.24-1.38-1.85-3.21-1.85-5.51,0-2.12.55-3.99,1.64-5.62,1.09-1.62,2.66-2.88,4.69-3.76,2.03-.88,4.39-1.33,7.08-1.33s4.96.42,7.15,1.25,4.08,2.06,5.67,3.68l-1.38,2.6c-1.77-1.59-3.57-2.76-5.41-3.5-1.84-.74-3.85-1.11-6.04-1.11-3.18,0-5.66.69-7.45,2.07s-2.68,3.27-2.68,5.67c0,2.08.78,3.64,2.33,4.66,1.55,1.03,3.83,1.89,6.84,2.6l1.54.37c2.83.67,5.07,1.33,6.73,1.96,1.66.64,3.07,1.59,4.24,2.86,1.17,1.27,1.75,2.97,1.75,5.09s-.55,3.86-1.64,5.43c-1.1,1.57-2.66,2.79-4.69,3.66s-4.39,1.3-7.08,1.3c-2.97,0-5.59-.4-7.87-1.19Z"/><path class="cls-1" d="m646.45,208.02v26.55h-3.23v-5.09c-.78,1.77-1.95,3.12-3.53,4.05s-3.45,1.4-5.64,1.4c-2.37,0-4.44-.56-6.23-1.67-1.79-1.11-3.16-2.7-4.13-4.77-.97-2.07-1.46-4.48-1.46-7.23s.49-5.19,1.48-7.29c.99-2.1,2.38-3.73,4.16-4.88,1.78-1.15,3.84-1.72,6.17-1.72,2.15,0,4.02.46,5.59,1.38s2.76,2.26,3.58,4.03v-4.77h3.23Zm-5.51,21.2c1.52-1.91,2.28-4.59,2.28-8.06s-.76-6.2-2.28-8.11c-1.52-1.91-3.68-2.86-6.47-2.86s-4.96.98-6.52,2.94-2.33,4.67-2.33,8.14.78,6.09,2.33,7.98c1.55,1.89,3.75,2.83,6.57,2.83s4.89-.95,6.41-2.86Z"/><path class="cls-1" d="m655.25,195.56h3.18v39.01h-3.18v-39.01Z"/><path class="cls-1" d="m671.44,233.24c-1.86-1.13-3.29-2.74-4.29-4.82-1.01-2.08-1.51-4.5-1.51-7.26s.5-5.18,1.51-7.26c1.01-2.08,2.44-3.69,4.29-4.82,1.85-1.13,4-1.7,6.44-1.7s4.52.57,6.36,1.7c1.84,1.13,3.26,2.74,4.27,4.82,1.01,2.08,1.51,4.5,1.51,7.26s-.5,5.18-1.51,7.26c-1.01,2.09-2.43,3.69-4.27,4.82-1.84,1.13-3.96,1.7-6.36,1.7s-4.58-.56-6.44-1.7Zm12.93-4c1.54-1.89,2.31-4.58,2.31-8.08s-.78-6.16-2.33-8.08c-1.56-1.93-3.71-2.89-6.47-2.89s-4.96.96-6.52,2.89-2.33,4.62-2.33,8.08.76,6.24,2.28,8.11c1.52,1.87,3.69,2.81,6.52,2.81s5.01-.94,6.55-2.83Z"/><path class="cls-1" d="m719.06,217.66v16.91h-3.23v-16.7c0-2.65-.54-4.59-1.62-5.83-1.08-1.24-2.76-1.85-5.06-1.85-2.65,0-4.79.81-6.41,2.44-1.62,1.63-2.44,3.82-2.44,6.57v15.37h-3.18v-19.19c0-2.76-.14-5.21-.42-7.37h3.07l.42,4.88c.81-1.8,2.03-3.17,3.66-4.11,1.62-.94,3.5-1.41,5.62-1.41,6.39,0,9.59,3.43,9.59,10.28Z"/></svg>